# xmcd
#
# Track frame offsets: 
#        182
#        13540
#        26117
#        37990
#        52435
#        67500
#        85365
#        100660
#        112780
#        132355
#        143320
#        156565
#        171537
#        183162
#
# Disc length: 2574 seconds
#
# Revision: 1
# Processed by: cddbd v1.5.2PL0 Copyright (c) Steve Scherf et al.
# Submitted via: ExactAudioCopyFreeDBPlugin 1.0
#
DISCID=b30a0c0e
DTITLE=Kenny Rogers and The First Edition - The Great Kenny Rogers
DYEAR=2001
DGENRE=Country
TTITLE0=Ruby, Don't Take Your Love to Town
TTITLE1=Reuben James
TTITLE2=Me and Bobby McGee
TTITLE3=Sunshine
TTITLE4=Just Dropped In (To See What Condition My Condition Was In)
TTITLE5=Something's Burning
TTITLE6=For the Good News
TTITLE7=Elvira
TTITLE8=Lay It Down
TTITLE9=Always Leaving, Always Gone
TTITLE10=Shine on Ruby Mountain
TTITLE11=All God's Lonely Children
TTITLE12=Girl, Get a Hold of Yourself
TTITLE13=New Design
EXTD=
EXTT0=
EXTT1=
EXTT2=
EXTT3=
EXTT4=
EXTT5=
EXTT6=
EXTT7=
EXTT8=
EXTT9=
EXTT10=
EXTT11=
EXTT12=
EXTT13=
PLAYORDER=
